{"title":"Flo Rida - Wild Ones ft. Sia [Official Video]{HIGH QUALITY MP4 F","uid":7165166,"size":167423000,"categoryP":"video","categoryS":"music_videos","magnet":"?xt=urn:btih:6cca5bb2d56a2c2377248d00c1f8a7b964f761b0&amp;dn=Flo+Rida+-+Wild+Ones+ft.+Sia+%5BOfficial+Video%5D%7BHIGH+QUALITY+MP4+F&amp;tr=udp%3A%2F%2Ftracker.openbittorrent.com%3A80&amp;tr=udp%3A%2F%2Fopen.demonii.com%3A1337&amp;tr=udp%3A%2F%2Ftracker.coppersurfer.tk%3A6969&amp;tr=udp%3A%2F%2Fexodus.desync.com%3A6969","seeders":1,"leechers":0,"uploader":"bobyalex11","files":1,"time":1333749153,"description":"                                   ToxickBoy\nDescription:\n\nVIDEO:\n\nFormat : MPEG-4\nDuration : 3min 56sec \nBit rate : 5 500 Kbps \nMaximum bit rate : 13.3 Mbps \nWidth : 1 920 pixels \nHeight : 1 080 pixels \nDisplay aspect ratio : 16:9 \nFrame rate : 23.976 fps \nStream size : 155 MiB (97%) \n\nAUDIO:\n\nFormat : AAC \nDuration : 3min 56sec \nBit rate mode : Variable \nBit rate : 149 Kbps \nMaximum bit rate : 202 Kbps \nChannel(s) : 2 channels \nSampling rate : 44.1 KHz \nStream size : 4.22 MiB (3%) \n\nHOPE YOU ENJOY!\n\n\n\n\n\n","torrent":{"xt":"urn:btih:6cca5bb2d56a2c2377248d00c1f8a7b964f761b0","amp;dn":"Flo+Rida+-+Wild+Ones+ft.+Sia+%5BOfficial+Video%5D%7BHIGH+QUALITY+MP4+F","amp;tr":["udp%3A%2F%2Ftracker.openbittorrent.com%3A80","udp%3A%2F%2Fopen.demonii.com%3A1337","udp%3A%2F%2Ftracker.coppersurfer.tk%3A6969","udp%3A%2F%2Fexodus.desync.com%3A6969"],"infoHash":"6cca5bb2d56a2c2377248d00c1f8a7b964f761b0","infoHashBuffer":{"type":"Buffer","data":[108,202,91,178,213,106,44,35,119,36,141,0,193,248,167,185,100,247,97,176]},"announce":[],"urlList":[]}}